/* XPM */
static char * engoo_xpm[] = {
"48 48 25 1",
" 	c None",
".	c #000000",
"+	c #104D00",
"@	c #007118",
"#	c #00B673",
"$	c #009663",
"%	c #00DB8C",
"&	c #004D31",
"*	c #8CFFD6",
"=	c #4A7100",
"-	c #007121",
";	c #ADFFDE",
">	c #009629",
",	c #639600",
"'	c #73B600",
")	c #94DB00",
"!	c #A5FF00",
"~	c #BDFF63",
"{	c #D6FF8C",
"]	c #5A9200",
"^	c #EFFFCE",
"/	c #DEFFAD",
"(	c #42FFB5",
"_	c #294D00",
":	c #6BFFC6",
"                                                ",
"               ..........                       ",
"              ...++@@+++....                    ",
"            ...+@@@#$$#$$@+...                  ",
"           ..+@@%$%%%%&&&$&@@..                 ",
"          ..+$*%%$&&&&&&&&$$&@@..               ",
"         ..+$$#&&&&&&&&&&&&==&@@+..             ",
"        .+**%%&&-&&&&&&&&&&&&==@=++.            ",
"       .+*##%&&-&&&&&&&&&&&=&&==@=++..          ",
"      ..+;%>&&&&&&&&&&&&&&&&===,,,''++.         ",
"      .+*%##&&&&&&&&&&&&&&&=,,,))@)++..         ",
"     .+#*#&&&&&&&&&&&&&&@=,,!!!!@++.....        ",
"     .@%%-&&&&&&&&&&&@@,,)!!!@@++.......        ",
"    .+#*-&&&&&&&&&&&@,,,!))'+++..........       ",
"    .@##&&&&&&&&&&,,,,,!!)+++.............      ",
"   .+$%&&&&&&&&@,,)=,)))'++.............        ",
"   .+@%&&&&&&@,,,@,'~~~+++.........             ",
"   .+#@&&&&&&,,@',,{{'++.........               ",
"   .@$&&&&&&,,@!)]{{'++........                 ",
"   .$$&&&&&,,='])!~'+.........                  ",
"   .$%&&&&,,=))^^!'+........                    ",
"   .%&&&&@,=,'^^)'........                      ",
"   .$&&&@@,,'/)''........                       ",
"   $@&&&@,,)!))'........                        ",
"   $@&&@,')!{'+........                         ",
"   @@&&@')))'+........                ....      ",
"   .@&&@,))'+.......                 .+$@+.     ",
"   .@&@@))!'.......                 .(%_@+@.    ",
"   .@&@,''+.......                 .((__@@@'.   ",
"   .@&@')'.......                 .$%__..@)=.   ",
"   .@&,,)=.......               ..#$___.+@@'..  ",
"   .@&,@@+......               .$%_,__..+=')..  ",
"   .+@,@@++....               .#$_''_..+@=,)... ",
"    .+,@@@@+....            ..&&_='__.++@=!+... ",
"    .+@'@+@++....         ..$#+_=)__.+++@='.... ",
"    .+@@@+@+++....       .$$&+_''__.$$++=,=.... ",
"     .@@@@+++%+....   ...#&+&_!),_..$++=,)=.... ",
"     .+,@@+++$$++.....%#$$+&'!/__..$++==!=....  ",
"      .+@@++@++$$+++::$$&&==!^'_..$++==='=....  ",
"      ..+@@@@+++$*%::$$&&=~^!,....$+='),,.....  ",
"       ..+@++++++$+$++&=,!!{,.....$+=)!^=....   ",
"       ...,&&&+++++&===!~))...... +=))/!.....   ",
"        .___,_=====)=)''',_.....   =+!=.....    ",
"         .@.,_,,,__,,'')__.....    ++=.....     ",
"          .....__'............      .......     ",
"           ..................                   ",
"             ..............                     ",
"              ...........                       "};
