/* XPM */
static char * connect_xpm[] = {
"16 16 6 1",
" 	c None",
".	c #FFFFFF",
"+	c #000000",
"@	c #808080",
"#	c #008000",
"$	c #00FF00",
"       .+       ",
"     ......     ",
"    .++.+++.    ",
"   .+ @@@@ +.   ",
"  .+@@####@@+.  ",
" .+ @.#$$##@ +. ",
" .+@##..$$##++. ",
"...@#$..$$$#+...",
"+.+@#$$$$$$#++.+",
" .@@##$$$$##+@. ",
" .@ +##$$##+ @. ",
" +.@++####+@@.+ ",
"  +.@ ++++ @..+ ",
"   +.@@.+@@....@",
"    +......++...",
"     ++.+++  +.."};
