/* XPM */
static char * doom3_xpm[] = {
"16 16 10 1",
" 	c None",
".	c #330000",
"+	c #6A0001",
"@	c #181917",
"#	c #643604",
"$	c #9D2B00",
"%	c #8F3433",
"&	c #E44935",
"*	c #D56F35",
"=	c #B37E3D",
"     @%&%       ",
"   %*##@.#**    ",
"  =*=$+@.#==*@  ",
" %#***++#=&$**  ",
" *.#%$*+*#*@$%@ ",
"%$@.&#.*%%%+.$% ",
"#.#.$$*.&&$#.+$ ",
"&.@$*%+.#$&%#+& ",
"$#&#.&+*#*.$==& ",
" **%%&*%*%&**=% ",
" =+.@$&*&@#.@%# ",
" %#.*$=#=$@.%$  ",
"  $&$#.&##+%#@  ",
"  @$=$==.$#$@   ",
"     #%*&#%     ",
"                "};
