/* XPM */
static char * gamespy3d_xpm[] = {
"16 16 7 1",
" 	c None",
".	c #000000",
"+	c #FFFFFF",
"@	c #C0C0C0",
"#	c #808080",
"$	c #008000",
"%	c #00FF00",
"     ..+..      ",
"    .@@+@@#.    ",
"   .@$.#.$#@.   ",
"  .#.$%%%$..@.  ",
" .@..$%%%$..#.  ",
" #...$$..$%$.@. ",
".+.$%%%%%$$..@..",
"+++..$.$$...#++#",
".@...$.$$.$..@..",
".#.%%...$%%..@. ",
" .@.%$..$%%.@.  ",
" ..@%$..$%%$@.  ",
"  ..@%$$%%@#+.  ",
"   ..#+++#...+. ",
"     ..+..  ..+.",
"      .+.    ..+"};
