/* XPM */
static char * hl_xpm[] = {
"16 16 4 1",
" 	c None",
".	c #800000",
"+	c #FF0000",
"@	c #040404",
"      ....      ",
"    .+...++.    ",
"   ++      .+   ",
"  ++  .+    .+  ",
" ++    +.    .. ",
" +     .+     + ",
".+     ++.    +.",
".+    .+.+    ..",
".+    +. +.   ..",
".+   .+  .+   +.",
" +  .+.   ++. + ",
" ..  .     .@.. ",
"  +.        .+  ",
"   +.      .+   ",
"    .++..++.    ",
"      ....      "};
