/* XPM */
static char * pfilter_cfg_xpm[] = {
"17 17 7 1",
" 	c None",
".	c #808080",
"+	c #FFFFFF",
"@	c #000000",
"#	c #008000",
"$	c #00FF00",
"%	c #C0C0C0",
"      .+@.       ",
"    .++++++.     ",
"   .+@@+##$+.    ",
"  .+@@@@@@@@+.   ",
" .+@@#######@+.  ",
" +@@##$$$$####+  ",
".+@@@@@@@@@@@@+. ",
"++%@@##@###@@+++ ",
"@+@@$@@@@@@@#@+@ ",
".+@@##@@@@#$#@+. ",
" +@@@#@@@@###@+. ",
" @+@@#@@@@@#@+.  ",
"  @+@######@++.  ",
"   @+@@+@@@++++. ",
"    @++++++@@+++.",
"     @@+@@@  @+++",
"      .+@     @++"};
