/* XPM */
static char * q_xpm[] = {
"16 16 7 1",
" 	c None",
".	c #C0C0C0",
"+	c #0000FF",
"@	c #868686",
"#	c #800000",
"$	c #00FF00",
"%	c #040404",
"     .++++.     ",
"    @++++++@    ",
"   #++++$$$+#   ",
"  @+$$++$$$++@  ",
"  %+$$++++$$$%  ",
"  %+$+++++$$$%  ",
"  %++++++++$+%  ",
"  %@+++@@+++$%  ",
"  @%+++@%+++%@  ",
"   %%@+@%+@%%   ",
"    %%%%%%%%    ",
"     @%%%%@     ",
"       @%       ",
"       @%       ",
"       .@       ",
"        @       "};
