/* XPM */
static char * q1_xpm[] = {
"16 16 5 1",
" 	c None",
".	c #C0C0C0",
"+	c #868686",
"@	c #800000",
"#	c #040404",
"     .    .     ",
"    +      +    ",
"   @        @   ",
"  +          +  ",
"  #          #  ",
"  #          #  ",
"  #          #  ",
"  #+   ++   +#  ",
"  +#   +#   #+  ",
"   ##+ +# +##   ",
"    ########    ",
"     +####+     ",
"       +#       ",
"       +#       ",
"       .+       ",
"        +       "};
