/* XPM */
static char * q3_xpm[] = {
"16 16 2 1",
" 	c None",
".	c #800000",
"                ",
"        .       ",
"        .       ",
"        .       ",
"  ..    .    .. ",
" .      .      .",
" ..     .     ..",
"  ..... . ..... ",
"   .... . ....  ",
"      . . .     ",
"      . . .     ",
"      . . .     ",
"      . . .     ",
"      . . .     ",
"        .       ",
"        .       "};
