/* XPM */
static char * refresh_xpm[] = {
"16 19 9 1",
" 	c None",
".	c #00FF00",
"+	c #008000",
"@	c #000000",
"#	c #000080",
"$	c #FFFFFF",
"%	c #800000",
"&	c #FF0000",
"*	c #C0C0C0",
"     .....+@    ",
"    .++++++++@  ",
".@ .+++@    ++@ ",
".@++++@      +@ ",
"+++++@        +@",
"++++@#####      ",
"++++...@$##     ",
"++++++@$$#$#    ",
"+++@#$%%$####  &",
"++@ #$$$$$$$#&&%",
"+@  #$%%%%%&&&%%",
"    #$$$$$&%%%%%",
"    #$%%%&%%%%%%",
"    #$$$$$$$%%%%",
"    #######%%%%%",
"  %@******&%%%@%",
"  %%@****&%%%@ %",
"   %%%%%%%%%@   ",
"     %%%%%@     "};
