/* XPM */
static char * refrsel_xpm[] = {
"16 19 11 1",
" 	c None",
".	c #00FF00",
"+	c #008000",
"@	c #000000",
"#	c #FFFFFF",
"$	c #C0C0C0",
"%	c #000080",
"&	c #0000FF",
"*	c #FF0000",
"=	c #800000",
"-	c #808080",
"     .....+@    ",
"    .++++++++@  ",
".@ .+++@    ++@ ",
".@++++@      +@ ",
"+++++@@@@@@@@ +@",
"++++@######$@   ",
"++++...%%%%$@   ",
"++++++&&&&&$@   ",
"+++@@#&&&&&$@  *",
"++@ @$$$$$$$@**=",
"+@  @@@@@@@***==",
"     -@---*=====",
"   @@@@@@*======",
"   @#######-====",
"   @$@-@@--=====",
"  =@@@@@@@*===@=",
"  ==@$$$$*===@ =",
"   =========@   ",
"     =====@     "};
