/* XPM */
static char * server_na_xpm[] = {
"16 16 4 1",
" 	c None",
".	c #868686",
"+	c #FFFFFF",
"@	c #C0C0C0",
"                ",
" .............. ",
" .+@@@@@@@@@@.. ",
" .@.........@.. ",
" .@.........@.. ",
" .@.@@@@@@@@@.. ",
" .@.@@@@@@@@@.. ",
" .@.@@@@@@@@@.. ",
" .@.@@@@@@@@@.. ",
" .@@@@@@@@@@@.. ",
" .@............ ",
" .............. ",
"    .@.@..@.    ",
"................",
".+@@@@@@@...@@..",
".@.......@.@...."};
