/* XPM */
static char * server_error_xpm[] = {
"16 16 8 1",
" 	c None",
".	c #040404",
"+	c #FFFFFF",
"@	c #C0C0C0",
"#	c #868686",
"$	c #800000",
"%	c #FF0000",
"&	c #000080",
"                ",
"  ..............",
"  .+@@@@@@@@@@#.",
"  .@#########@#.",
"  .@#$#$$$$#$+#.",
"  .@#%%+%%+%%+#.",
"  .@#%%%++%%%+#.",
"  .@#%%+%%+%%+#.",
"  .@#%+%%%%+%+#.",
"  .@@+++++++++#.",
"  .@###########.",
"  ..............",
"     .&#@##&.   ",
" ...............",
" .+@@@@@@@###@@#",
" .@#######.#.###"};
