/* XPM */
static char * server_up_xpm[] = {
"16 16 9 1",
" 	c None",
".	c #040404",
"+	c #FFFFFF",
"@	c #C0C0C0",
"#	c #868686",
"$	c #008000",
"%	c #00FF00",
"&	c #000080",
"*	c #FFFF00",
" .............. ",
" .+@@@@@@@@@@#. ",
" .@#########@#. ",
" .@#$$$$$$$$+#. ",
" .@#%%%%%%%%+#. ",
" .@#%%%%%%%%+#. ",
" .@#%%%%%%%%+#. ",
" .@#%%%%%%%%+#. ",
" .@@+++++++++#. ",
" .@###########. ",
" .............. ",
"    .&#@##&.    ",
"................",
".+@@@@@%@#*#%@#.",
".@#######.#.###.",
"................"};
