/* XPM */
static char * sfilter_cfg_xpm[] = {
"17 17 7 1",
" 	c None",
".	c #808080",
"+	c #FFFFFF",
"@	c #000000",
"#	c #000080",
"$	c #0000FF",
"%	c #C0C0C0",
"      .+@.       ",
"    .++++++.     ",
"   .+@@+@@@+.    ",
"  .+@@@@@@@@+.   ",
" .+@@++++++.@+.  ",
" +@.@+####$%@@+  ",
".+@%@+$$$$$%@@+. ",
"++%%@+$$$$$%@+++ ",
"@+@%@%%%%%%%@@+@ ",
".+@%@@@@@@@@@@+. ",
" +@.%.@...@%.@+. ",
" @+@@@@@@@@@@+.  ",
"  @+@.%++%.@++.  ",
"   @+@@+@@@++++. ",
"    @++++++@@+++.",
"     @@+@@@  @+++",
"      .+@     @++"};
