/* XPM */
static char * sn_xpm[] = {
"16 16 4 1",
" 	c None",
".	c #040404",
"+	c #FF0000",
"@	c #800000",
".++++++++++++++.",
".@++++@.@@+++++.",
" @@@@.@++@.@@@@ ",
" .@.@@@++@@@@@. ",
"  @+++@@@++++@  ",
"  .@+++++@@++.  ",
"   @+@@+++.+@   ",
"   .@@@+++@+.   ",
"    @+@@@@+@    ",
"    .@+@@++.    ",
"     @+@@+@     ",
"     .@..@.     ",
"      @@@@      ",
"      .@@.      ",
"       @@       ",
"       ..       "};
