/* XPM */
static char * stop_xpm[] = {
"16 16 6 1",
" 	c None",
".	c #FFFFFF",
"+	c #000000",
"@	c #808080",
"#	c #FF0000",
"$	c #800000",
"       .+       ",
"     ......     ",
"    .++.+++.    ",
"   .+  @+  +.   ",
"  .+        +.  ",
" .+ ##   ##  +. ",
" .+  ## ##$$ +. ",
"...   ###$$  ...",
"+.+   ###$   +.+",
" .@  ##$##   @. ",
" .@ ##$$ ##  @. ",
" +.@ $$   $$@.+ ",
"  +.@ @++  @..+ ",
"   +.@@.+@@....@",
"    +......++...",
"     ++.+++  +.."};
