/* XPM */
static char * un_xpm[] = {
"16 16 5 1",
" 	c None",
".	c #FFFFFF",
"+	c #868686",
"@	c #C0C0C0",
"#	c #040404",
"                ",
"                ",
"              . ",
"     ++     ..+ ",
"  .+++@    .@## ",
"  ##@@.@  ..+#  ",
"    #.@# +.@##  ",
"    #@+#  @@#   ",
"    +.+#  @@##  ",
"    +@@#  +@@#  ",
"    +@@# #@.@#  ",
"    +@++@@+@@#  ",
"    @#+++##+@#  ",
"      ###  #+@  ",
"            ##  ",
"                "};
