/* XPM */
static char * update_xpm[] = {
"16 19 8 1",
" 	c None",
".	c #00FF00",
"+	c #008000",
"@	c #000000",
"#	c #000080",
"$	c #0000FF",
"%	c #FF0000",
"&	c #800000",
"     .....+@    ",
"    .++++++++@  ",
".@ .+++@    ++@ ",
".@++++@      +@ ",
"+++++@        +@",
"++++@           ",
"++++...@@@#     ",
"++++++@@$$#@    ",
"+++@#@.++$#@#  %",
"++@ @..+$$$+@%%&",
"+@  @+++$$.%%%&&",
"    @.$$$$%&&&&&",
"    ##.$+%&&&&&&",
"     @##$#@@&&&&",
"      #@@@#&&&&&",
"  &@      %&&&@&",
"  &&@    %&&&@ &",
"   &&&&&&&&&@   ",
"     &&&&&@     "};
