/* XPM */
static char *unreal[]={
"32 32 239 2",
"Qt c None",
".Q c #080400",
"ar c #181400",
".# c #181810",
"bk c #202010",
".B c #292818",
"#y c #312c08",
"bD c #392c00",
"aG c #393410",
"ad c #413000",
".a c #413c20",
".r c #413c29",
"bE c #41505a",
"#c c #4a3c08",
"aW c #4a3c10",
".f c #4a4020",
".g c #4a4429",
"a0 c #524000",
"#6 c #524420",
".X c #524818",
"#P c #524829",
"aE c #525031",
"bC c #526162",
"#W c #5a4c10",
"#k c #5a5020",
"bA c #5a5031",
"#d c #5a6552",
"bx c #5a6973",
"bn c #625000",
"#O c #625518",
"aQ c #625929",
"bO c #625d29",
"bw c #62717b",
"bB c #6a5908",
"bo c #6a5d20",
".R c #6a6118",
"bg c #6a6129",
".b c #6a6131",
"bj c #6a694a",
"bm c #6a7162",
".Y c #6a756a",
"bs c #6a7d83",
"bG c #6a7d9c",
"b# c #735900",
"#0 c #736108",
"aM c #736131",
".e c #736931",
".C c #736d41",
"#. c #737152",
"ap c #73755a",
"be c #737d7b",
".1 c #73818b",
"#8 c #7b6100",
"bR c #7b6910",
"az c #7b6d18",
"bH c #7b6d29",
".6 c #7b6d31",
"as c #7b794a",
"a1 c #7b7d6a",
"#m c #7b8173",
".S c #7b8583",
".0 c #7b8d94",
"bh c #7b8d9c",
"bp c #7b919c",
"bJ c #837110",
"by c #837129",
"#S c #837939",
"aa c #83815a",
"bL c #838162",
"bI c #838573",
"aU c #838d83",
".2 c #83959c",
".N c #8399a4",
".3 c #8399ac",
".W c #8b6900",
"#4 c #8b7118",
"br c #8b7508",
"al c #8b7510",
"bP c #8b7d18",
"ah c #8b7d41",
"aH c #8b8d62",
"#Z c #8b8d6a",
"#R c #8b9994",
".4 c #8b9dac",
"#i c #8ba1b4",
"aT c #947100",
"bQ c #948120",
".c c #948541",
".s c #94854a",
"aZ c #949573",
".O c #949973",
"a5 c #949983",
".Z c #94a5b4",
"ay c #9c7900",
"a2 c #9c8920",
".7 c #9c996a",
"aR c #9c9d7b",
"#X c #9c9d83",
".m c #9ca58b",
"am c #9ca59c",
".T c #9caaac",
"#w c #9caeb4",
"#j c #9caebd",
"#h c #9cb2c5",
"ao c #a48100",
".U c #a48510",
".q c #a48d39",
".h c #a4914a",
"af c #a4954a",
".n c #a4a16a",
".u c #a4a583",
"#7 c #a4b29c",
"#b c #a4b6b4",
"#u c #a4b6c5",
"#x c #a4bacd",
".9 c #ac8900",
"bq c #ac9118",
"ba c #ac9939",
".d c #ac9952",
".K c #ac9d31",
"aN c #ac9d41",
"aY c #ac9d5a",
"at c #aca14a",
".i c #aca162",
".z c #acaa83",
"aI c #acae8b",
".l c #acb6a4",
"#v c #acbecd",
"#e c #acbed5",
"## c #acc2de",
".V c #b49100",
"#N c #b49518",
".p c #b49d4a",
"ae c #b4a15a",
".o c #b4aa62",
".t c #b4ae6a",
".j c #b4ae83",
".k c #b4b69c",
"ag c #b4ba8b",
".y c #b4beac",
"#K c #b4c2c5",
"#t c #b4c6d5",
"#Q c #b4c6de",
"#r c #b4cade",
"#n c #b4cae6",
"#C c #b4cede",
"#A c #b4d2ee",
"aL c #bd9900",
".E c #bd9918",
"bi c #bd9d10",
".J c #bda120",
"bN c #bda55a",
".I c #bdaa31",
".L c #bdaa41",
"#G c #bdaa4a",
".A c #bdae5a",
".M c #bdb26a",
"av c #bdc29c",
"a8 c #bdcac5",
"#s c #bdcede",
"#g c #bdcee6",
"#B c #bdd2e6",
"#o c #bdd6ee",
"aC c #c5a100",
"ac c #c5a108",
"bl c #c5ae5a",
"bM c #c5b64a",
".8 c #c5be7b",
"bS c #c5be8b",
"bK c #c5c69c",
"bb c #c5c6a4",
"aX c #c5cab4",
"#p c #c5d6e6",
"#q c #c5daee",
"#a c #c5def6",
"ai c #cdaa00",
"aA c #cdae10",
".P c #cdb24a",
"#H c #cdb639",
"#l c #cdbe62",
".5 c #cdbe6a",
".D c #cdc67b",
"bF c #cdce8b",
"bz c #cdd2ac",
"#U c #cddacd",
"#E c #cddee6",
"#f c #cde2f6",
"#D c #cde6ff",
"a9 c #d5ba29",
"bc c #d5be52",
"#M c #d5c252",
"aq c #d5ca83",
"a# c #d5e2e6",
"#5 c #d5eeff",
"ax c #deb600",
"a3 c #deba08",
"a6 c #deba20",
"aV c #dec231",
"aD c #dedebd",
"aJ c #dee2b4",
"#F c #deeade",
"au c #def6ff",
"a4 c #e6be00",
"bv c #e6be08",
"a7 c #e6c200",
"bu c #e6ce52",
"#Y c #e6ce7b",
"#L c #e6de9c",
"ab c #e6e2d5",
".v c #e6e6cd",
"#J c #e6eeee",
"b. c #eec200",
"bd c #eec600",
"bt c #eec610",
"aj c #eeca08",
"aw c #eeca18",
"#9 c #eeca31",
".F c #eeca41",
"#I c #eeeebd",
"#2 c #eef2e6",
"bf c #f6d65a",
"#1 c #f6e27b",
"aF c #f6eeb4",
"aP c #ffce00",
"aO c #ffd210",
"#z c #ffde31",
"aK c #ffde4a",
"aB c #ffe241",
"aS c #ffe25a",
"ak c #ffe620",
"#V c #ffe662",
".H c #ffee5a",
".G c #ffee73",
"a. c #fff6a4",
"#T c #fffacd",
"an c #ffff8b",
"#3 c #ffffc5",
".x c #ffffcd",
".w c #ffffe6",
"QtQtQtQtQtQtQtQtQtQtQt.#.a.b.c.d.d.c.e.f.#QtQtQtQtQtQtQtQtQtQtQt",
"QtQtQtQtQtQtQtQtQt.g.c.h.i.j.k.l.l.m.n.o.p.q.gQtQtQtQtQtQtQtQtQt",
"QtQtQtQtQtQtQt.r.s.t.u.k.v.w.w.w.w.x.x.v.y.z.A.p.BQtQtQtQtQtQtQt",
"QtQtQtQtQtQt.C.d.z.D.q.E.F.G.H.F.I.J.K.L.M.l.N.O.P.bQtQtQtQtQtQt",
"QtQtQtQt.Q.s.i.j.J.R.S.T.U.V.W.X.Y.N.Z.0.1.2.N.3.4.5.6QtQtQtQtQt",
"QtQtQtQt.s.7.8.9#.###a#a#b#c#d#e#f#g#h#i.4.4#i.Z.Z#j.A#kQtQtQtQt",
"QtQtQt.C.i#l.V#m#n#o#p#q#q#h#r#r#s#t#u#v#u#i.N#w#x#h#i#l#yQtQtQt",
"QtQt.r.d.D#z.m#A#B#r###C#r#B#r#p#r#r#s#s#t#h#j.Z#e#D#E#F#GQtQtQt",
"QtQt.c.m.o#H#I#J#n###v.Z#h#s#q#q#u###t###u#j#x#K#L#M#N#G#I#OQtQt",
"Qt#P.d#Q#o#R#S#H#T#q#r#j#u#p#r###u#t#v#u#u#h#U#V.9#W#m.R#X#Y.QQt",
"Qt.c#Z#n#p#a#n#d#0#1#2#g#e#o#g.y#C#r#r#u.Z#J#3#4#c.Z#5.m#6#I#OQt",
".#.d#7#t#g#a#s#h.Y#8#9a.a##D.kaa#s#p#r#uaba.acad.S#D#D#B.X.maeQt",
".gafag#t#r#t#B#B#5ahaiajak#Yalam#C.M#L#3anajao#O###B#o#Uaoapaqar",
".easat#b#B#s#B#qauavawaiaxayaz#u###7aAaBaCaCay.6#h#jaD#zaoaEaFaG",
".saH.UaI#e#u#r#f#paJaKaLaL#8aM#h####aNaOaLaL.W.b#i.4#HaPay.aaDaQ",
".daR#0ag#A#K.o#M.Ga.aSaxax#8aa#e#v#n.nawaxaxaT.6.Z#eaUaVaoaWaX.6",
"aYaZa0.5#o#B.Ta1a2a3awa4ax#8aR#A#v##a5a6a7a4.W.6#h#v#u.i#NaWaX.e",
"afaZad#NaD#oa8#p#Ca9b.b.axb#aI#a#x#ra5a9b.a4.W.6.3.Z.Z.zba.Xbb.b",
".C.7aGayaBa#.u.KbcaVa9bda4b#.O#a#x#xbe#Nb.a4.W.6#i.Z.1#X.J#kag#6",
"#P.MaE.Wb.bf#b#u#.aoaOb.a4.W#S#e#j.3.Obfb.b..Wbgbh.4#i#7bibj.8bk",
"bkblbmbna4az.2#D#A.iawb.bdaC.J#K.Z.l.xaSaiaiaTbo.1bp.N#Rbq#mae.Q",
"QtaNaZ#Wbrbs#D#D#Dag#9bdb.b.btaB#Vbu.EbvaL.9aT#Obwbsbx#ZazaR#SQt",
"Qt#P.5ap#0#B#f#o#Kbq.VaCb..9b.aCaLb##yaAajbdaT.Xbxbsbwasbj.MbkQt",
"QtQtataZbybz###oa5bA.g#cbnayayb#al#R.ZbB.WaxaLazbxbCbwbC#X#SQtQt",
"QtQt.a#l#mbqbb#a#o#a#D.Zbe.abDbB.2###u.1.aa0bn#8bjbEbEbe.A.#QtQt",
"QtQtQt.e.5a1.Ubz#a#o#B#r#f#qaUbs#h#u.Z#ibhbC.aadbn#PbE.o#6QtQtQt",
"QtQtQtQt#Saqa1albF#f#o#q#B#D#D###h#h.Z#i.0bG.1bHa0.r.i.bQtQtQtQt",
"QtQtQtQtQt.6.5bIaz.Kav#p#e#n#o##.Z.Z.3bp.0atacbJ#daY.bQtQtQtQtQt",
"QtQtQtQtQtQtaGblbKbLazaN.8aD#FaX#7.m.MbM.Ibr.b#ZbN#6QtQtQtQtQtQt",
"QtQtQtQtQtQtQtQt#O.5bKbLbObHbPbQbQalbR#kbj#Z.t#SarQtQtQtQtQtQtQt",
"QtQtQtQtQtQtQtQtQt.Q#kafaYbS.k#Xa5.u.j.iae#SbkQtQtQtQtQtQtQtQtQt",
"QtQtQtQtQtQtQtQtQtQtQtQtar#y#6bgaMaQ.f.BQtQtQtQtQtQtQtQtQtQtQtQt"};
